<svg width="187" height="187" viewBox="0 0 187 187" fill="none" xmlns="http://www.w3.org/2000/svg">
<mask id="mask0_122_86" style="mask-type:alpha" maskUnits="userSpaceOnUse" x="0" y="0" width="187" height="187">
<circle cx="93.5" cy="93.5" r="93.5" fill="#D9D9D9"/>
</mask>
<g mask="url(#mask0_122_86)">
<circle cx="93.5" cy="93.5" r="93.5" fill="#333837"/>
<path d="M57.9783 188.807C17.9783 247.807 90.9783 188.807 90.9783 188.807L140.478 158.807L162.978 75.8068L152.478 -10.6932C152.478 -10.6932 11.9783 -99.6931 65.9783 -13.1932C119.978 73.3068 97.9783 129.807 57.9783 188.807Z" fill="#333837"/>
<path d="M79 187C181.295 224.072 295.897 56.3058 109.868 0C157.714 120.319 97.664 131.021 79 187Z" fill="#ED6A5A" stroke="#FFF9F8" stroke-width="6"/>
<path d="M102.91 187C0.615616 224.072 -113.987 56.3058 72.0424 0C24.1966 120.319 84.2461 131.021 102.91 187Z" fill="#50A2A7" stroke="#FFF9F8" stroke-width="6"/>
</g>
</svg>
